<?xml version="1.0" encoding="iso-8859-1"?>
<!-- Generator: Adobe Illustrator 28.4.1, SVG Export Plug-In . SVG Version: 6.00 Build 0)  -->
<svg version="1.1" id="Layer_1" xmlns="http://www.w3.org/2000/svg" xmlns:xlink="http://www.w3.org/1999/xlink" x="0px" y="0px"
	 viewBox="0 0 381.478 355.703" style="enable-background:new 0 0 381.478 355.703;" xml:space="preserve">
<polyline style="fill:#E8DDC2;" points="151.198,213.73 144.138,217.531 114.405,238.592 102.186,251.363 196.409,279.441 
	228.993,247.807 237.305,236.946 221.254,228.083 206.863,222.011 "/>
<g id="FB2RZN_00000085954532580847674260000008162374801146145960_">
	<g>
		<g>
			<path style="fill:#9F7B3E;" d="M19.834,255.138c18.628,5.36,52.806,15.994,71.48,21.193c26.542,7.39,53.196,14.384,79.706,21.885
				c25.617,7.249,51.139,14.835,76.636,22.496c4.705,1.414,9.233,3.462,13.944,4.991c4.799,1.558,2.688,6.04,2.309,9.029
				c-0.365,2.879-3.155,2.293-5.623,1.53c-25.224-7.8-50.497-15.445-75.731-23.212c-15.357-4.727-30.589-9.882-46.025-14.329
				c-26.629-7.671-53.377-14.926-80.067-22.386c-7.029-1.965-28.723-6.903-35.736-8.926
				C20.725,264.078,19.834,258.469,19.834,255.138z"/>
			<path style="fill:#E8DDC2;" d="M196.829,36.172c26.205,0.835,51.13,6.381,73.969,19.92c5.339,3.165,7.296,7.844,7.705,13.603
				c0.155,2.188-0.111,3.688-2.957,4.026c-8.315,0.987-16.046,2.237-24.461-2.104c-22.929-11.827-47.585-17.671-73.534-17.156
				c-4.962,0.099-9.947,0.558-14.855,1.292c-3.309,0.495-3.989-0.6-2.916-3.362c3.319-8.548,8.732-14.323,18.617-15.045
				C184.527,36.898,190.627,36.1,196.829,36.172z"/>
			<path style="fill:#E8DDC2;" d="M251.038,86.19c11.291,11.547,11.718,25.557,8.857,40.172c-0.69,3.526-2.056,7.019-3.671,10.248
				c-5.745,11.486-14.33,18.987-27.797,20.289c-17.322,1.675-34.129-0.395-50.739-5.243c-9.919-2.896-17.904-8.438-23.018-17.353
				c-7.669-13.367-8.256-27.418-1.977-41.48c1.326-2.97,3.246-7.143,7.908-5.372c1.949,0.741,4.878,2.702,0.493,5.022
				c-3.12,1.65-4.701,4.912-6.568,7.787c-3.156,5.585-2.177,11.826-1.538,17.507c1.305,11.59,3.984,19.278,18.387,23.388
				c5.938,1.694,12.083,2.356,18.194,2.737c6.234,0.388,12.471,2.283,18.765,0.447c0.626,0.043,1.252,0.086,1.878,0.129
				c0.739,0.491,1.477,0.472,2.214-0.004c0.59,0.008,1.181,0.017,1.771,0.025c0.75,0.544,1.493,0.527,2.229-0.03
				c10.545,0.116,18.972-3.412,23.532-13.636c4.74-10.629,3.164-24.422-4.905-30.373c0.154-2.624,2.582-2.131,4.049-2.862
				C244.274,95.011,249.529,92.582,251.038,86.19z"/>
			<path style="fill:#544F41;" d="M281.739,151.694c-6.373,5.181-10.57,10.7-12.275,17.698c-1.244,5.106-2.847,10.24-1.414,15.625
				c0.968,3.638-2.023,3.788-4.108,4.138c-10.059,1.687-20.255,1.657-30.35,0.981c-12.219-0.818-24.402-2.431-36.249-5.818
				c-3.033-0.867-6.033-1.855-9.021-2.867c-6.539-2.215-7.074-3.07-5.832-9.789c0.33-1.784,0.879-3.579,1.647-5.219
				c1.317-2.811,1.244-7.414,5.795-6.883c4.288,0.5,9.049,0.125,10.991,6.371c1.698,5.461,7.333,7.756,12.631,9.571
				c13.795,4.727,26.724,2.732,39.076-4.735c6.244-3.775,9.881-8.974,10.693-16.313c0.485-4.385,3.222-6.04,7.51-5.132
				C274.067,150.005,277.293,150.725,281.739,151.694z"/>
			<path style="fill:#E8DDC2;" d="M247.063,212.501c-7.688,1.367-12.475,7.379-13.03,15.036c-0.092,1.274,1.186,3.33-1.044,3.739
				c-2.2,0.404-3.812-0.986-4.649-3.003c-1.862-4.484-0.826-8.798,0.942-13.043c1.443-3.463,4.205-5.896,7.645-9.343
				c-7.277,1.71-10.078,6.282-12.342,11.521c-0.552,1.278,0.394,4.233-2.232,3.458c-2.186-0.645-2.627-3.104-2.098-5.446
				c2.152-9.541,10.056-16.094,20.68-16.979c9.503-0.792,18.082,2.028,25.917,7.175c3.557,2.337,6.088,5.616,6.966,9.961
				c0.983,4.865,0.52,9.505-3.549,12.726c-4.456,3.527-10.037,4.414-15.112,2.342c-4.71-1.923,0.891-3.817,0.744-6.273
				c-3.685,0.843-6.133,3.344-7.872,6.479c-2.056,3.707-5.243,4.83-8.694,3.219c-3.244-1.514-2.63-5.036-2.092-8.009
				C238.271,220.377,242.49,216.739,247.063,212.501z"/>
			<path style="fill:#544F41;" d="M360.886,240.569c0.984,6.066-1.475,8.89-4.768,11.976c-11.033,10.342-21.552,21.23-32.449,31.72
				c-8.253,7.944-17.204,15.2-25.07,23.496c-7.67,8.089-15.656,15.767-24.238,22.827c-1.713,1.41-4.189,5.124-6.297,2.158
				c-1.769-2.488-2.077-6.784,1.015-9.601c14.342-13.065,28.222-26.608,42.107-40.154c14.869-14.505,29.958-28.785,45.001-43.11
				c1.248-1.189,2.303-3.704,4.15-2.942C362.221,237.716,360.797,240.249,360.886,240.569z"/>
			<path style="fill:#544F41;" d="M187.146,31.904c7.606-4.938,15.857-8.036,24.528-9.274c21.84-3.118,42.291,0.986,60.525,13.784
				c5.421,3.805,10.232,8.484,13.063,14.778c0.838,1.862,1.056,2.799-1.49,3.406c-3.558,0.849-6.322,0.822-9.701-1.482
				c-14.921-10.171-31.854-15.41-49.438-18.665c-9.613-1.78-19.324-2.85-29.121-3.001C192.712,31.407,189.942,31.575,187.146,31.904
				z"/>
			<path style="fill:#544F41;" d="M251.41,150.633c3.04-4.561,6.126-8.124,8.031-12.234c8.252-17.807,7.765-35.317-2.893-52.133
				c-2.239-3.533-1.385-6.563,2.668-6.729c10.356-0.422,20.285-2.792,30.142-5.683c1.992-0.584,4.013-0.757,3.743,2.048
				c-0.213,2.217,2.098,6.041-2.316,6.275c-4.589,0.243-9.251,0.149-12.414,3.898c-4.892,5.798-8.429,12.429-8.996,20.16
				c-0.567,7.724,0.404,15.143,4.668,22.004c1.373,2.209,6.211,2.484,4.316,6.113c-1.211,2.318-4.027,3.848-6.239,5.584
				C266.116,144.65,259.44,148.06,251.41,150.633z"/>
			<path style="fill:#9F7B3E;" d="M273.358,191.352c-1.748-8.788-2.671-17.722,2.278-25.659c2.672-4.286,5.46-8.914,10.222-11.572
				c3.494-1.951,7.242-2.145,11.116-1.897c4.23,0.271,7.526,2.348,10.532,5.084c-0.181,2.051-1.63,2.209-3.229,2.19
				c-4.519-0.055-7.857,2.252-10.749,5.425c-4.713,5.172-7.3,11.403-8.943,18.088c-0.7,2.849,1.132,6.382-1.267,8.583
				c-2.49,2.284-6.118,0.306-9.151,1.097c0,0-0.268-0.348-0.265-0.347C273.724,192.014,273.541,191.683,273.358,191.352z"/>
			<path style="fill:#7B7661;" d="M274.181,106.828c-1.63-8.533,3.382-14.24,9.297-19.191c3.325-2.783,7.374-2.54,11.063,0.018
				c0.971,0.673,1.964,1.323,1.664,2.762c-0.279,1.339-1.405,1.131-2.342,1.318c-2.849,0.571-4.754,2.381-5.894,4.924
				c-3.263,7.28-4.674,14.689-1.761,22.524c0.918,2.469,3.151,2.709,4.856,3.883c2.377,1.637,2.776,2.968-0.3,4.471
				c-6.732,3.288-15.399-1.098-16.164-8.767C274.213,114.891,273.32,110.957,274.181,106.828z"/>
			<path style="fill:#544F41;" d="M218.505,228.083c-8.314-3.688-17.273-1.634-23.581-8.292c-0.217-0.229-0.634-0.606-0.754-0.541
				c-7.101,3.879-13.163-1.83-19.826-2.266c-5.871-0.384-11.745-2.021-17.409-3.777c-3.264-1.012-5.937-1.618-8.857,0.592
				c-1.275,0.964-2.171-0.342-2.638-1.4c-0.929-2.106-1.692-4.285-2.862-7.312c5.105,0.799,9.595,1.374,14.034,2.218
				c17.547,3.335,35.031,7.032,52.64,9.99C215.265,218.307,216.632,222.101,218.505,228.083z"/>
			<path style="fill:#9F7B3E;" d="M182.14,192.423c-1.411-3.025-0.474-6.152-0.865-9.873c11.607,4.372,22.964,7.294,34.589,9.052
				c5.068,0.766,10.199,1.109,15.3,1.656c1.1,0.118,2.562-0.286,2.966,1.17c0.465,1.674-1.132,1.706-2.125,2.122
				c-4.248,1.777-8.015,4.591-12.523,5.808c-2.33-2.257-5.353-0.943-8.007-1.388C201.335,199.271,191.74,195.878,182.14,192.423z"/>
			<path style="fill:#E8DDC2;" d="M139.678,182.134c-1.264,3.072-1.888,5.126-2.911,6.959c-1.854,3.324-4.638,5.543-8.597,4.158
				c-3.889-1.36-4.856-4.896-4.446-8.568c0.531-4.752,2.443-9.107,6.26-12.09c2.026-1.583,2.616-5.555,6.671-4.239
				c3.74,1.213,6.201,3.801,8.083,6.971c4.407,7.425,3.376,14.85-2.171,20.837c-1.262,1.362-3.15,2.275-3.789,1.746
				c-1.266-1.046-2.014-2.857-0.537-4.817C140.418,190.201,140.922,186.867,139.678,182.134z"/>
			<path style="fill:#9F7B3E;" d="M154.129,203.341c10.087-7.217,20.56-3.589,30.928-1.775c6.706,1.173,13.376,2.549,20.058,3.856
				c1.303,0.255,2.684,0.402,3.86,0.958c2.798,1.324,6.987,1.973,6.289,6.155c-0.915,5.481-5.222,2.221-7.596,1.702
				c-15.124-3.303-30.477-5.295-45.637-8.34C159.332,205.357,156.523,204.89,154.129,203.341z"/>
			<path style="fill:#E8DDC2;" d="M109.218,192.082c1.472,5.936,2.96,11.024,9.142,14.204c-7.645,0.166-12.385-3.897-14.441-11.587
				c-2.321-8.678,0.069-19.982,7.347-22.973c2.021,4.515,4.007,9.059,6.083,13.561c2.147,4.657,4.079,9.417,8.77,12.378
				c1.467,0.926,2.309,2.806,1.135,4.777c-1.118,1.875-2.893,2.189-4.75,1.732c-4.302-1.059-7.092-4.006-9.393-7.647
				C112.212,195.107,112.323,192.868,109.218,192.082z"/>
			<path style="fill:#7B7661;" d="M125.137,78.128c3.339,1.435,5.955-1.244,9.017-1.649c21.906-2.893,42.849,1.462,62.689,9.855
				c16.895,7.147,31.91,4.627,46.896-4.029c1.439-0.831,2.736-1.872,4.452-2.067c-2.431,5.598-7.63,8.364-12.68,10.035
				c-14.419,4.771-28.894,5.061-43.047-1.81c-11.493-5.58-24.106-6.893-36.525-8.927c-6.744-1.105-13.497-0.672-20.245-0.961
				c-3.817-0.163-6.277,3.793-10.182,2.899c-0.426-0.745-0.852-1.489-1.278-2.233c0,0,0.008,0.033,0.009,0.032
				c0.89,0.212,1.23-0.134,1.04-1.021L125.137,78.128z"/>
			<path style="fill:#E8DDC2;" d="M277.556,220.226c0.636-6.138-1.507-11.26-6.223-15.382c-1.063-0.929-2.825-1.869-1.953-3.581
				c0.725-1.424,2.335-1.915,4.066-2.052c13.393-1.059,21.934,10.673,16.857,23.234c-1.417,3.505-7.231,5.898-10.766,4.587
				C275.752,225.628,277.864,222.673,277.556,220.226z"/>
			<path style="fill:#544F41;" d="M324.26,226.905c-11.88,7.813-25.456,9.777-39.146,11.215c-7.351,0.772-14.726,2.138-22.129,0.3
				c1.677-3.93,4.604-5.079,8.774-4.586c6.044,0.715,12.241,1.892,17.635-2.574c1.624-1.345,3.824-0.947,5.806-0.9
				c8.218,0.193,16.253-0.543,23.728-4.374C320.916,224.966,322.764,224.967,324.26,226.905z"/>
			<path style="fill:#544F41;" d="M203.517,161.838c4.114-0.055,6.893,1.203,9.71,3.708c5.437,4.836,12.389,5.274,19.299,4.588
				c9.908-0.984,18.333-4.557,22.763-14.328c0.59-1.302,1.55-1.781,2.785-1.337c1.536,0.553,0.967,1.794,0.742,2.942
				c-0.714,3.639-3.06,6.121-5.614,8.593c-9.788,9.473-34.739,9.631-43.851,3.403C206.707,167.601,204.39,165.57,203.517,161.838z"
				/>
			<path style="fill:#7B7661;" d="M294.222,190.993c-0.039-5.115,4.225-10.047,9.93-11.676c6.369-1.819,9.813-0.684,12.959,4.068
				c1.14,1.722,1.38,3.841-0.857,3.658c-7.13-0.581-12.184,3.661-17.85,6.627C295.521,195.178,293.947,194.198,294.222,190.993z"/>
			<path style="fill:#7B7661;" d="M208.335,144.34c-6.294,1.836-12.531-0.058-18.765-0.447c-6.112-0.381-12.257-1.043-18.194-2.737
				c-14.403-4.11-17.083-11.798-18.387-23.388c-0.64-5.681-1.618-11.922,1.538-17.507c3.188,1.297,0.801,3.514,0.563,5.049
				c-1.369,8.819-0.739,17.056,4.411,24.806c4.311,6.487,10.481,9.173,17.692,10.063c9.823,1.212,19.684,2.111,29.523,3.2
				C207.283,143.441,207.796,144.007,208.335,144.34z"/>
			<path style="fill:#544F41;" d="M274.169,192.691c3.033-0.79,6.661,1.187,9.151-1.097c2.399-2.201,0.567-5.734,1.267-8.583
				c1.643-6.685,4.23-12.917,8.943-18.088c2.891-3.173,6.23-5.48,10.749-5.425c1.599,0.019,3.048-0.139,3.229-2.19
				c0.751,1.08,1.608,2.102,2.224,3.253c0.825,1.541,0.956,3.275-0.144,4.687c-1.449,1.858-2.606,0.071-3.766-0.616
				c-3.467-2.054-6.26-0.677-8.98,1.581c-8.392,6.969-10.958,16.334-10.276,26.634c0.255,3.853-0.934,4.526-3.454,2.669
				C280.307,193.45,276.291,196.164,274.169,192.691z"/>
			<path style="fill:#7B7661;" d="M159.42,188.255c-1.008-6.336-3.147-12.05-9.053-15.675c9.146-5.475,18.144,0.756,18.874,12.655
				C165.968,186.241,162.694,187.248,159.42,188.255z"/>
			<path style="fill:#544F41;" d="M288.098,108.902c-0.066-3.841,0.221-7.593,1.957-11.12c0.704-1.43,1.554-2.551,3.342-2.426
				c1.622,0.114,2.205,1.37,2.623,2.619c2.009,6.006,2.003,11.992-0.495,17.871c-0.643,1.513-1.463,3.344-3.378,3.136
				c-1.912-0.208-3.22-1.881-3.608-3.672C288.092,113.238,288.22,111.043,288.098,108.902z"/>
			<path style="fill:#9F7B3E;" d="M121.834,175.571c-0.25,1.621-1.822,2.697-1.421,4.502c-1.703-0.232-2.461-1.154-2.954-2.187
				c-4.786-10.016-9.554-20.041-14.248-30.101c-0.824-1.766-2.745-4.096,1.231-4.731c0.988,0.839,2.487,1.485,2.883,2.544
				c2.819,7.531,6.11,14.825,10.111,21.799c-0.545-0.088-1.09-0.176-1.634-0.263c0.042,0.255-0.006,0.646,0.14,0.743
				c0.68,0.452,1.061-0.089,1.445-0.543C120.051,169.442,119.414,173.331,121.834,175.571z"/>
			<path style="fill:#7B7661;" d="M289.592,57c4.298,1.771,3.582,5.787,4.383,8.776c0.538,2.009-6.436,6.178-10.617,5.127
				c-4.555-1.145-3.854-7.003-3.508-9.82C280.484,55.92,286.716,59.951,289.592,57z"/>
			<path style="fill:#7B7661;" d="M303.298,195.419c3.915-4.364,14.747-5.673,18.541-2.565c1.886,1.545,3.306,9.41,1.806,11.211
				c-0.899,1.079-1.876,2.693-3.82,0.588C313.465,197.765,313.379,197.845,303.298,195.419z"/>
			<path style="fill:#544F41;" d="M216.203,162.449c11.742,0.325,21.821-4.196,32.566-4.544
				C244.593,166.337,224.915,169.604,216.203,162.449z"/>
			<path style="fill:#544F41;" d="M318.194,209.307c3.495,8.551-1.214,15.988-9.963,15.811c-1.888-0.038-1.501-0.933-1.346-2.25
				c0.415-3.536,2.334-7.025,0.522-10.67C311.444,212.882,314.521,209.984,318.194,209.307z"/>
			<path style="fill:#7B7661;" d="M318.194,209.307c-3.673,0.678-6.751,3.575-10.788,2.891c-0.159-3.427-1.424-6.413-3.631-9.009
				c-2.264-2.664-1.154-3.726,1.831-3.983C311.429,198.705,317.035,203.193,318.194,209.307z"/>
			<path style="fill:#9F7B3E;" d="M173.335,154.863c2.83,0.831,5.561,1.842,8.05,3.503c1.104,0.736,1.161,1.502,0.681,2.455
				c-1.423,2.822-2.245,5.809-2.949,8.884c-0.503,2.196-1.83,2.969-3.867,1.039c-2.546-2.411-4.968-11.848-3.733-14.901
				C171.907,154.878,172.393,154.561,173.335,154.863z"/>
			<path style="fill:#E8DDC2;" d="M121.834,175.571c-2.42-2.24-1.783-6.129-4.446-8.237l0.049,0.064
				c-4.001-6.975-7.293-14.269-10.112-21.8c-0.396-1.059-1.895-1.704-2.883-2.544c2.499-1.909,4.142-1.762,5.606,1.469
				c3.875,8.552,8.064,16.961,12.153,25.416C123.156,171.912,124.321,173.846,121.834,175.571z"/>
			<path style="fill:#544F41;" d="M304.379,213.472c-0.026,2.135,0.088,4.283-0.107,6.403c-0.43,4.672-4.662,7.506-9.154,6.446
				c-1.72-0.406-1.654-1.249-1.131-2.461c1.478-3.421,1.271-7.062,1.418-10.657C298.397,213.293,301.388,213.382,304.379,213.472z"
				/>
			<path style="fill:#7B7661;" d="M182.14,192.423c9.6,3.455,19.195,6.847,29.336,8.547c2.654,0.445,5.677-0.869,8.007,1.388
				c-0.837,1.413-1.939,2.092-3.69,1.733c-9.657-1.984-19.307-4.012-29.001-5.798C183.268,197.644,181.546,196.084,182.14,192.423z"
				/>
			<path style="fill:#544F41;" d="M161.108,167.493c5.641-3.732,5.407-3.623,7.816,1.565c1.439,3.099,3.575,5.93,5.703,8.641
				c4.09,5.211,3.931,6.757-2.074,11.028C172.599,179.668,170.074,172.052,161.108,167.493z"/>
			<path style="fill:#544F41;" d="M114.781,218.218c-5.345-1.761-7.786-5.96-9.23-10.996c6.726,4.489,13.681,5.364,21.186,1.184
				C123.573,212.964,119.115,215.516,114.781,218.218z"/>
			<path style="fill:#544F41;" d="M308.096,174.145c-5.264-0.06-8.496,2.774-11.735,5.59c-0.861,0.749-1.665,1.866-2.952,1.37
				c-2.032-0.783-0.447-2.401-0.328-3.383c0.536-4.414,3.561-7.556,7.284-9.081C304.155,167.09,306.206,170.29,308.096,174.145z"/>
			<path style="fill:#7B7661;" d="M304.379,213.472c-2.991-0.09-5.982-0.179-8.973-0.269c-0.023-2.698-0.839-5.218-1.637-7.757
				c-0.332-1.056-1.943-2.144-0.114-3.36c1.253-0.833,2.482-0.863,3.76-0.196C302.088,204.331,304.846,207.934,304.379,213.472z"/>
			<path style="fill:#9F7B3E;" d="M254.245,195.497c4.578-4.01,9.633-2.988,14.181-3.491c1.235-0.137,2.91,2.593,0.676,4.129
				c-2.484,1.709-5.046,3.792-8.521,1.529C258.987,196.626,256.887,196.364,254.245,195.497z"/>
			<path style="fill:#7B7661;" d="M251.038,86.19c-1.509,6.391-6.764,8.82-11.936,11.399c-1.467,0.731-3.896,0.238-4.049,2.862
				c-1.431-1.033-2.862-2.065-4.92-3.55C238.401,94.995,244.998,91.102,251.038,86.19z"/>
			<path style="fill:#544F41;" d="M159.42,188.255c3.274-1.007,6.548-2.013,9.821-3.021c0.147,7.059-0.175,7.406-9.821,10.673
				C159.42,193.379,159.42,190.817,159.42,188.255z"/>
			<path style="fill:#544F41;" d="M236.3,240.282c0.161-1.362,0.451-2.461,2.01-0.993c0,0-0.003,0.006-0.003,0.006
				c-0.662,0.334-1.323,0.668-1.985,1.001L236.3,240.282z"/>
			<path style="fill:#E8DDC2;" d="M216.426,144.46c-0.736,0.557-1.478,0.574-2.229,0.03
				C214.941,144.48,215.683,144.47,216.426,144.46z"/>
			<path style="fill:#E8DDC2;" d="M212.426,144.465c-0.737,0.476-1.475,0.494-2.214,0.004
				C210.95,144.467,211.688,144.466,212.426,144.465z"/>
			<path style="fill:#544F41;" d="M273.358,191.352c0.183,0.331,0.366,0.662,0.546,0.991
				C273.72,192.013,273.539,191.683,273.358,191.352z"/>
			<path style="fill:#E8DDC2;" d="M125.283,78.253c0.19,0.887-0.15,1.234-1.04,1.021C123.841,78.171,124.187,77.829,125.283,78.253z
				"/>
			<path style="fill:#28271C;" d="M195.25,274.922c-0.107,2.829-1.322,2.443-3.587,1.791c-14.218-4.093-28.504-7.953-42.787-11.822
				c-13.515-3.661-27.07-7.177-40.543-10.988c-0.86-0.243-4.569,0.826-2.811-2.724c19.697,6.027,39.835,10.443,59.542,16.487
				C174.924,270.689,184.757,274.325,195.25,274.922z"/>
			<path style="fill:#544F41;" d="M225.249,246.663c-0.091,3.101-1.708,4.611-4.79,4.592
				C222.056,249.725,223.652,248.194,225.249,246.663z"/>
			<path style="fill:#28271C;" d="M244.297,240.281c-0.069,0.119-0.137,0.237-0.206,0.356c0.074-0.113,0.149-0.225,0.223-0.338
				C244.315,240.299,244.297,240.281,244.297,240.281z"/>
			<path style="fill:#9F7B3E;" d="M117.388,167.334c-0.384,0.454-0.765,0.995-1.445,0.543c-0.147-0.097-0.099-0.488-0.14-0.743
				c0.545,0.087,1.089,0.175,1.634,0.263C117.437,167.397,117.388,167.334,117.388,167.334z"/>
		</g>
	</g>
</g>
<path style="fill:#9F7B3E;" d="M356.16,234.515c-0.344-1.572-1.743-1.932-3.011-2.167c-2.926-0.54-5.9-0.166-8.893-0.556
	c-6.881-0.896-13.073-4.361-19.995-4.888c-11.88,7.813-25.456,9.777-39.146,11.215c-7.351,0.772-14.727,2.138-22.129,0.3
	c-3.771,1.256-5.164,4.995-7.739,7.499c-10.386,10.097-20.502,20.476-31.054,30.394c-1.891,1.778-0.933,4.874-3.385,5.647
	c-5.275,1.662-8.422,5.9-12.216,9.397c-2.86,2.636-6.132,3.594-10.052,2.398c-8.326-2.541-16.687-4.975-25.073-7.312
	c-21.87-6.094-43.762-12.084-65.406-18.985c-10.943-3.489-22.123-6.254-32.973-10.083c-1.546-0.546-3.326-0.818-3.712-2.848
	c-0.373-1.961,1.451-2.369,2.438-3.383c4.41-4.533,9.29-8.584,14.495-12.071c5.241-3.511,8.595-9.439,14.227-11.903
	c4.939-2.161,8.476-5.553,12.245-8.95c-5.345-1.761-7.786-5.96-9.23-10.996c-1.903-2.263-4.11-4.402-4.952-7.288
	c-0.862-2.954-2.225-2.168-3.901-0.956c-10.28,7.43-20.678,14.703-30.811,22.328c-9.869,7.427-19.823,14.698-30.468,20.985
	c0,0-15.739,7.743-16.22,10.214c-0.482,2.471,17.76,6.977,17.76,6.977l-0.076-0.848c11.773,2.801,23.369,6.222,34.985,9.62
	c17.691,5.175,35.609,9.569,53.373,14.502c45.286,12.576,90.639,24.919,135.624,38.553c2.311,0.701,4.658,2.074,7.004-0.137
	c2.903-2.736,6.187-5.116,8.819-8.082c8.962-10.099,19.34-18.715,28.961-28.119c9.277-9.069,19.069-17.689,27.617-27.402
	c6.524-7.414,14.482-13.215,20.913-20.627C354.868,236.147,356.51,236.116,356.16,234.515z"/>
<path style="fill:#28271C;" d="M124.234,79.242c-0.001,0-0.001,0-0.002-0.001c0.004,0.012,0.006,0.021,0.01,0.033L124.234,79.242z"
	/>
<path style="fill:#28271C;" d="M364.969,241.379c-0.294-1.95-0.173-4.008,0.059-5.981c0.473-4.024-1.412-5.572-5.213-6.25
	c-10.304-1.837-20.545-4.028-30.821-6.022c-2.808-0.545-4.942-0.924-2.149-4.435c3.246-4.08,3.936-9.029,3.568-14.17
	c-0.7-9.759-5.863-17.513-11.306-25.095c-1.896-2.641-3.054-5.092-2.932-8.572c0.519-14.705-9.038-24.131-23.651-22.687
	c-6.746,0.667-12.416-2.199-19.929-2.787c7.354-4.548,10.772-12.526,19.468-12.882c0.569-0.023,1.09-0.708,1.672-1.012
	c14.399-7.503,17.609-31.881,7.223-44.351c-1.87-2.246-2.178-4.542-2.727-7.157c-1.075-5.116,0.459-10.131-0.069-15.169
	c-0.975-9.302-7.42-15.674-12.724-22.423C262.1,12.695,208.171,9.081,178.491,31.101c-1.299,0.963-2.404,2.207-4.238,2.444
	c-9.09,1.173-15.218,6.646-17.305,15.075c-1.93,7.791-6.514,11.615-13.479,13.823c-0.942,0.299-1.828,0.797-2.713,1.255
	c-8.113,4.197-16.483,7.983-23.078,14.591c-2.444,2.449-3.553,5.177-2.161,8.566c1.387,3.377,4.102,4.54,7.539,4.672
	c5.419,0.207,10.494-1.566,15.718-2.516c3.909-0.71,7.425-3.385,11.579-2.648c0.329,1.628-0.653,2.498-1.21,3.459
	c-9.829,16.964-5.992,49.216,15.813,61.181c3.593,1.971,3.45,6.912-0.118,9.184c-5.19,3.305-10.688,6.018-16.488,8.147
	c-2.117,0.777-3.544,0.704-5.233-0.995c-3.206-3.225-7.958-5.569-11.754-4.317c-8.396,2.77-9.914-2.728-12.24-8.062
	c-1.127-2.584-2.486-5.067-3.662-7.631c-3.318-7.234-6.481-14.542-9.934-21.711c-2.098-4.355-5.225-5.2-10.013-2.985
	c-3.684,1.704-5.376,4.305-3.331,8.43c0.953,1.922,1.454,4.064,2.377,6.004c4.423,9.297,8.866,18.584,13.436,27.808
	c0.857,1.73,1.052,2.615-0.767,3.929c-6.351,4.591-8.461,11.413-8.503,18.797c-0.02,3.427-1.165,5.373-3.824,7.302
	c-13.181,9.561-26.64,18.731-39.555,28.674c-6.372,4.905-12.632,10.098-19.928,13.714c0,0.125,0,0.25,0,0.375
	c-7.36,4.647-18.227,11.506-17.964,15.312c0,0-1.269-0.476-0.634,9.617c0.552,8.784,5.791,9.888,18.599,12.406l6.713,1.259
	c0.536,0.033,1.15,0.148,1.846,0.346c31.288,8.894,62.641,17.569,93.865,26.681c30.101,8.784,60.106,17.904,90.082,27.108
	c1.362,0.418,2.727,0.832,4.092,1.248l-0.002-0.002c0.035,0.011,0.077,0.024,0.113,0.035c2.914,0.886,5.826,1.785,8.714,2.76
	c8.967,2.802,20.794,6.265,24.672,5.858c3.922-0.412,9.64-4.965,12.564-7.508c15.29-13.923,30.162-28.309,45.121-42.595
	c8.282-7.909,16.401-15.99,24.606-23.98c0.438-0.426,0.871-0.951,1.361-1.336c2.935-2.9,6.834-6.843,8.88-8.765
	c0.318-0.346,0.671-0.678,1.097-0.982C363.9,251.735,365.851,247.22,364.969,241.379z M321.839,192.854
	c1.886,1.544,3.306,9.41,1.806,11.211c-0.899,1.079-1.876,2.693-3.82,0.588c-6.36-6.888-6.446-6.808-16.527-9.234
	C307.213,191.054,318.045,189.746,321.839,192.854z M307.407,212.197c-0.159-3.427-1.424-6.412-3.631-9.009
	c-2.264-2.664-1.154-3.726,1.831-3.983c5.821-0.5,11.427,3.987,12.587,10.101c3.495,8.551-1.214,15.988-9.963,15.811
	c-1.888-0.038-1.501-0.933-1.346-2.25C307.299,219.332,309.219,215.842,307.407,212.197z M304.272,219.874
	c-0.43,4.672-4.662,7.506-9.154,6.446c-1.72-0.406-1.654-1.249-1.131-2.461c1.478-3.421,1.271-7.062,1.419-10.658
	c-0.024-2.697-0.839-5.217-1.638-7.757c-0.332-1.056-1.943-2.144-0.114-3.36c1.253-0.833,2.482-0.863,3.76-0.196
	c4.673,2.441,7.432,6.044,6.965,11.582C304.353,215.607,304.468,217.755,304.272,219.874z M293.082,177.723
	c0.536-4.414,3.561-7.556,7.284-9.081c3.789-1.551,5.84,1.648,7.731,5.503c-5.264-0.06-8.496,2.774-11.735,5.59
	c-0.861,0.749-1.665,1.866-2.952,1.37C291.378,180.322,292.962,178.704,293.082,177.723z M317.111,183.384
	c1.14,1.722,1.38,3.841-0.857,3.659c-7.13-0.581-12.184,3.661-17.85,6.627c-2.883,1.509-4.457,0.528-4.182-2.677
	c-0.039-5.115,4.225-10.047,9.93-11.676C310.521,177.497,313.965,178.632,317.111,183.384z M296.974,152.224
	c4.23,0.271,7.526,2.347,10.533,5.084c0.75,1.079,1.607,2.101,2.223,3.253c0.825,1.541,0.956,3.275-0.144,4.687
	c-1.449,1.858-2.606,0.071-3.766-0.616c-3.467-2.054-6.26-0.677-8.98,1.581c-8.392,6.969-10.958,16.334-10.276,26.634
	c0.255,3.853-0.934,4.526-3.454,2.669c-2.804-2.066-6.82,0.648-8.942-2.825l-0.268-0.348c-0.181-0.33-0.362-0.66-0.543-0.991
	c-1.748-8.788-2.671-17.722,2.278-25.659c2.672-4.286,5.46-8.914,10.222-11.572C289.352,152.17,293.099,151.975,296.974,152.224z
	 M277.556,220.226c0.636-6.138-1.507-11.26-6.223-15.382c-1.063-0.929-2.825-1.869-1.953-3.581c0.725-1.424,2.336-1.915,4.066-2.052
	c13.393-1.059,21.934,10.673,16.857,23.234c-1.417,3.505-7.231,5.898-10.766,4.587C275.752,225.628,277.864,222.673,277.556,220.226
	z M142.515,228.518c2.331,1.747,4.006,0.738,3.865-2.421c-0.059-1.327,0.074-2.662,0.024-3.99c-0.222-5.977,1.268-7.362,7.539-6.817
	c11.215,0.975,22.193,3.47,32.983,6.389c10.094,2.731,20.315,4.847,30.435,7.419c0.828,0.211,1.658,0.393,2.479,0.586
	c2.021,2.152,4.805,2.678,6.411,2.793c0.421,0.364,0.826,0.772,1.207,1.245c0.031,0.039,0.066,0.07,0.099,0.107
	c0.303,0.819,1.208,1.909,3.644,2.968c1.323,0.575,1.941,1.194,2.411,1.762c-0.879,0.909-1.965,1.619-2.603,2.672
	c1.662-0.298,3.325-0.597,4.987-0.895c1.369,0.352,3.729,0.41,8.32-0.038c0.107-0.01,0.205-0.023,0.31-0.034
	c1.368-0.063,2.809-0.007,3.819-0.598c4.7-1.04,6.41-2.783,7.009-4.107c1.357-0.354,2.716-0.704,4.066,0.176
	c0.184,1.698-1.451,2.345-2.418,3.316c-11.982,12.019-23.976,24.027-36.061,35.943c-4.61,4.546-9.539,8.769-14.165,13.3
	c-2.077,2.034-4.133,2.101-6.804,1.505c-18.948-4.227-37.438-10.13-56.134-15.266c-21.575-5.927-42.995-12.419-64.467-18.72
	c-1.529-0.449-3.286-0.576-4.578-2.119c9.543-7.516,19.014-14.986,28.497-22.441c7.166-5.634,14.409-11.172,21.491-16.909
	c2.829-2.292,4.921-2.705,6.562,1.1c0.254,0.59,0.685,1.217,1.209,1.56c4.825,3.155,4.808,6.656,0.851,10.499
	C136.663,226.433,139.531,226.282,142.515,228.518z M185.058,201.566c6.706,1.173,13.376,2.549,20.058,3.856
	c1.303,0.255,2.685,0.402,3.86,0.958c2.798,1.324,6.987,1.973,6.289,6.155c-0.915,5.481-5.222,2.221-7.596,1.703
	c-15.124-3.303-30.477-5.295-45.637-8.34c-2.698-0.542-5.507-1.008-7.901-2.557C164.217,196.125,174.69,199.752,185.058,201.566z
	 M175.249,170.744c-2.546-2.411-4.968-11.848-3.733-14.901c0.391-0.966,0.877-1.283,1.818-0.98c2.83,0.831,5.561,1.842,8.05,3.503
	c1.104,0.736,1.161,1.502,0.681,2.455c-1.423,2.822-2.245,5.809-2.949,8.884C178.614,171.901,177.287,172.673,175.249,170.744z
	 M186.791,198.293c-3.523-0.649-5.246-2.209-4.651-5.869c-1.411-3.025-0.474-6.152-0.865-9.872
	c11.607,4.372,22.964,7.294,34.589,9.052c5.068,0.766,10.199,1.109,15.3,1.656c1.1,0.118,2.562-0.286,2.966,1.169
	c0.465,1.674-1.132,1.706-2.125,2.122c-4.248,1.777-8.015,4.591-12.522,5.808c-0.838,1.413-1.94,2.093-3.691,1.733
	C206.135,202.106,196.486,200.079,186.791,198.293z M255.157,230.645c-4.71-1.923,0.891-3.817,0.744-6.273
	c-3.685,0.843-6.133,3.344-7.872,6.479c-2.056,3.707-5.243,4.83-8.694,3.219c-3.244-1.514-2.63-5.036-2.092-8.009
	c1.028-5.684,5.247-9.323,9.82-13.56c-7.688,1.367-12.475,7.379-13.03,15.036c-0.092,1.274,1.186,3.33-1.044,3.74
	c-0.452,0.083-0.872,0.073-1.272,0.015l-1.142-0.369c-0.983-0.517-1.745-1.47-2.234-2.65c-1.862-4.484-0.826-8.798,0.942-13.043
	c1.443-3.463,4.205-5.896,7.645-9.343c-7.277,1.71-10.078,6.282-12.342,11.521c-0.552,1.278,0.394,4.233-2.232,3.458
	c-2.186-0.645-2.627-3.104-2.098-5.446c2.152-9.542,10.056-16.094,20.68-16.979c9.503-0.792,18.082,2.028,25.917,7.175
	c3.557,2.337,6.088,5.616,6.966,9.961c0.983,4.865,0.52,9.505-3.549,12.726C265.813,231.831,260.232,232.717,255.157,230.645z
	 M254.245,195.497c4.578-4.01,9.633-2.988,14.181-3.491c1.235-0.137,2.91,2.593,0.677,4.129c-2.484,1.709-5.046,3.792-8.521,1.529
	C258.987,196.626,256.887,196.364,254.245,195.497z M281.739,151.694c-6.373,5.181-10.57,10.7-12.275,17.698
	c-1.244,5.106-2.847,10.24-1.414,15.625c0.968,3.638-2.023,3.788-4.108,4.138c-10.059,1.687-20.255,1.657-30.35,0.981
	c-12.219-0.818-24.402-2.431-36.249-5.818c-3.033-0.867-6.033-1.855-9.021-2.867c-6.539-2.215-7.074-3.07-5.832-9.789
	c0.33-1.784,0.879-3.579,1.647-5.219c1.317-2.811,1.244-7.414,5.795-6.884c4.288,0.5,9.049,0.125,10.991,6.371
	c1.698,5.461,7.333,7.756,12.631,9.571c13.795,4.727,26.724,2.732,39.076-4.735c6.244-3.775,9.881-8.974,10.693-16.313
	c0.485-4.385,3.222-6.04,7.51-5.132C274.067,150.005,277.293,150.725,281.739,151.694z M232.526,170.134
	c9.908-0.984,18.333-4.557,22.763-14.328c0.59-1.302,1.55-1.781,2.785-1.337c1.536,0.553,0.967,1.794,0.742,2.942
	c-0.714,3.639-3.06,6.121-5.614,8.593c-9.788,9.473-34.739,9.631-43.852,3.403c-2.644-1.807-4.96-3.838-5.834-7.569
	c4.114-0.055,6.893,1.203,9.71,3.708C218.664,170.382,225.616,170.821,232.526,170.134z M216.203,162.449
	c11.742,0.325,21.821-4.196,32.566-4.544C244.593,166.337,224.915,169.604,216.203,162.449z M278.361,134.352
	c-1.211,2.318-4.027,3.848-6.239,5.584c-6.005,4.714-12.682,8.124-20.711,10.696c3.04-4.561,6.126-8.124,8.031-12.234
	c8.252-17.807,7.765-35.317-2.893-52.133c-2.239-3.533-1.385-6.563,2.668-6.729c10.356-0.422,20.285-2.792,30.142-5.683
	c1.992-0.584,4.013-0.757,3.743,2.048c-0.213,2.216,2.098,6.041-2.316,6.275c-4.589,0.243-9.251,0.149-12.414,3.898
	c-4.892,5.798-8.429,12.429-8.996,20.159c-0.567,7.724,0.404,15.143,4.668,22.004C275.417,130.448,280.256,130.723,278.361,134.352z
	 M295.525,115.845c-0.643,1.513-1.463,3.344-3.378,3.136c-1.912-0.208-3.22-1.881-3.608-3.672c-0.448-2.071-0.32-4.266-0.442-6.407
	c-0.066-3.841,0.221-7.593,1.957-11.12c0.704-1.43,1.554-2.552,3.342-2.426c1.622,0.114,2.205,1.37,2.623,2.619
	C298.029,103.981,298.023,109.967,295.525,115.845z M296.205,90.418c-0.279,1.339-1.405,1.131-2.342,1.318
	c-2.849,0.571-4.754,2.381-5.894,4.924c-3.263,7.28-4.674,14.689-1.761,22.524c0.918,2.469,3.151,2.709,4.856,3.883
	c2.377,1.637,2.776,2.968-0.3,4.471c-6.732,3.288-15.399-1.098-16.164-8.767c-0.387-3.879-1.28-7.813-0.419-11.943
	c-1.63-8.533,3.382-14.24,9.297-19.19c3.325-2.783,7.374-2.54,11.063,0.018C295.512,88.329,296.505,88.979,296.205,90.418z
	 M293.974,65.776c0.538,2.009-6.436,6.178-10.617,5.127c-4.555-1.145-3.854-7.003-3.508-9.82c0.635-5.164,6.866-1.132,9.742-4.084
	C293.89,58.771,293.173,62.786,293.974,65.776z M211.674,22.63c21.84-3.118,42.291,0.986,60.525,13.784
	c5.421,3.805,10.232,8.484,13.063,14.778c0.838,1.862,1.056,2.799-1.49,3.406c-3.558,0.849-6.322,0.822-9.701-1.482
	c-14.921-10.171-31.854-15.41-49.438-18.665c-9.613-1.78-19.324-2.85-29.121-3.001c-2.798-0.043-5.568,0.125-8.364,0.454
	C194.753,26.966,203.004,23.868,211.674,22.63z M159.779,52.391c3.319-8.548,8.732-14.323,18.617-15.045
	c6.131-0.448,12.231-1.246,18.433-1.174c26.205,0.836,51.13,6.381,73.969,19.92c5.339,3.165,7.296,7.844,7.705,13.603
	c0.155,2.188-0.111,3.688-2.957,4.026c-8.315,0.987-16.046,2.237-24.461-2.104c-22.929-11.827-47.585-17.671-73.534-17.156
	c-4.962,0.099-9.947,0.558-14.855,1.292C159.387,56.247,158.707,55.152,159.779,52.391z M135.693,78.575
	c-3.817-0.163-6.277,3.793-10.182,2.9c-0.384,0.702-0.967,1.367-1.108,2.115c-0.22,1.17,0.696,2.837-1.544,2.897
	c-1.189,0.032-2.363-0.058-3.088-1.198c-0.957-1.505-0.68-2.952,0.65-3.979c1.133-0.874,1.682-2.996,3.811-2.069
	c-0.381-1.074-0.033-1.407,1.051-0.988l-0.146-0.125c6.602-6.792,15.272-10.133,23.63-13.886
	c16.582-7.446,33.991-6.414,51.441-4.489c15.686,1.731,30.146,7.514,44.558,13.459c1.205,0.497,2.451,0.957,3.55,1.64
	c2.908,1.809,3.209,3.667-0.125,5.385c-2.431,5.598-7.63,8.365-12.68,10.035c-14.419,4.771-28.894,5.061-43.047-1.81
	c-11.494-5.58-24.106-6.893-36.525-8.927C149.194,78.431,142.442,78.864,135.693,78.575z M154.671,134.303
	c-7.669-13.367-8.256-27.418-1.977-41.48c1.326-2.97,3.246-7.143,7.908-5.372c1.949,0.741,4.878,2.702,0.492,5.022
	c-3.12,1.65-4.701,4.912-6.568,7.787c3.188,1.297,0.801,3.514,0.562,5.049c-1.369,8.82-0.739,17.056,4.411,24.806
	c4.311,6.487,10.481,9.173,17.692,10.063c9.823,1.212,19.684,2.111,29.523,3.2c0.569,0.063,1.082,0.629,1.621,0.961
	c0.626,0.043,1.252,0.086,1.878,0.129c0.738-0.001,1.476-0.003,2.214-0.004c0.59,0.008,1.181,0.017,1.771,0.025
	c0.743-0.01,1.486-0.02,2.229-0.029c10.545,0.116,18.972-3.412,23.532-13.636c4.74-10.629,3.164-24.422-4.906-30.373
	c-1.431-1.032-2.861-2.065-4.919-3.55c8.268-1.907,14.864-5.8,20.905-10.711c11.291,11.547,11.718,25.557,8.857,40.172
	c-0.69,3.526-2.056,7.019-3.671,10.248c-5.745,11.486-14.33,18.987-27.797,20.289c-17.322,1.675-34.129-0.395-50.739-5.243
	C167.77,148.76,159.785,143.218,154.671,134.303z M168.924,169.058c1.439,3.099,3.575,5.93,5.703,8.641
	c4.09,5.211,3.931,6.757-2.074,11.028c0.046-9.059-2.479-16.675-11.445-21.234C166.749,163.761,166.515,163.87,168.924,169.058z
	 M169.241,185.234c0.147,7.06-0.175,7.406-9.821,10.673c0-2.528,0-5.09,0-7.652c-1.008-6.336-3.147-12.05-9.053-15.675
	C159.513,167.104,168.511,173.335,169.241,185.234z M156.611,207.306c17.547,3.335,35.031,7.032,52.64,9.99
	c6.014,1.011,7.382,4.804,9.254,10.786c-8.314-3.689-17.273-1.634-23.581-8.292c-0.217-0.229-0.634-0.606-0.754-0.541
	c-7.101,3.879-13.163-1.83-19.826-2.266c-5.871-0.384-11.745-2.021-17.409-3.777c-3.264-1.012-5.937-1.618-8.857,0.592
	c-1.275,0.964-2.171-0.341-2.638-1.4c-0.929-2.106-1.692-4.285-2.862-7.312C147.682,205.887,152.172,206.462,156.611,207.306z
	 M123.724,184.683c0.531-4.752,2.443-9.107,6.26-12.09c2.026-1.583,2.616-5.555,6.671-4.239c3.74,1.213,6.201,3.801,8.083,6.971
	c4.407,7.425,3.377,14.85-2.171,20.837c-1.262,1.362-3.15,2.275-3.789,1.746c-1.266-1.046-2.014-2.857-0.537-4.817
	c2.179-2.891,2.682-6.225,1.438-10.957c-1.264,3.072-1.888,5.126-2.911,6.959c-1.854,3.324-4.638,5.543-8.597,4.158
	C124.281,191.891,123.314,188.355,123.724,184.683z M103.212,147.785c-0.824-1.766-2.745-4.096,1.232-4.734
	c2.499-1.906,4.141-1.759,5.605,1.471c3.875,8.552,8.064,16.961,12.153,25.416c0.954,1.974,2.12,3.908-0.367,5.633
	c-0.25,1.621-1.822,2.697-1.421,4.502c-1.703-0.232-2.461-1.154-2.954-2.187C112.673,167.87,107.905,157.845,103.212,147.785z
	 M111.266,171.726c2.021,4.515,4.007,9.059,6.083,13.561c2.147,4.657,4.079,9.417,8.77,12.378c1.467,0.926,2.309,2.806,1.135,4.777
	c-1.118,1.875-2.893,2.19-4.75,1.732c-4.302-1.06-7.092-4.006-9.393-7.647c-0.896-1.418-0.786-3.657-3.891-4.444
	c1.472,5.936,2.96,11.024,9.142,14.204c-7.645,0.166-12.385-3.897-14.441-11.587C101.598,186.021,103.988,174.717,111.266,171.726z
	 M263.908,334.732c-0.365,2.879-3.155,2.293-5.623,1.53c-25.224-7.8-50.497-15.445-75.731-23.212
	c-15.357-4.727-30.589-9.882-46.025-14.328c-26.629-7.671-53.377-14.926-80.067-22.386c-6.156-1.72-12.289-3.521-18.429-5.302
	l-0.002-0.003c0,0-0.014-0.003-0.022-0.004c-0.863-0.25-2.589-0.572-2.589-0.482c-4.194-0.808-12.095-2.454-13.366-3.61
	c-1.504-1.367-1.475-6.271-1.143-10.615c5.22,2.538,14.509,3.962,14.509,3.962c18.628,5.36,37.221,10.851,55.894,16.05
	c26.542,7.39,53.195,14.384,79.706,21.885c25.617,7.249,51.139,14.835,76.636,22.496c4.706,1.414,9.233,3.462,13.944,4.991
	C266.397,327.261,264.286,331.742,263.908,334.732z M260.865,321.308c-44.986-13.634-90.339-25.976-135.624-38.553
	c-17.764-4.933-35.682-9.327-53.373-14.502c-12.098-3.539-24.172-7.11-36.449-9.972c-18.769-5.066-19.448-4.202,0-16.028
	c0,0.012,0,0.024,0,0.036c2.258-1.333,4.479-2.719,6.68-4.133c0.137-0.085,0.265-0.164,0.404-0.25l-0.005-0.004
	c8.034-5.184,15.739-10.841,23.389-16.597c10.133-7.625,20.531-14.898,30.811-22.328c1.676-1.211,3.039-1.998,3.901,0.956
	c0.842,2.886,3.048,5.025,4.952,7.288c6.725,4.489,13.681,5.364,21.185,1.184c-3.163,4.558-7.621,7.11-11.955,9.812
	c-3.769,3.397-7.306,6.789-12.245,8.95c-5.632,2.464-8.986,8.392-14.227,11.903c-5.205,3.487-10.085,7.538-14.495,12.071
	c-0.986,1.014-2.811,1.422-2.438,3.383c0.386,2.03,2.165,2.302,3.712,2.848c10.85,3.83,22.03,6.594,32.973,10.083
	c21.644,6.901,43.536,12.891,65.406,18.985c8.386,2.337,16.747,4.771,25.073,7.312c3.92,1.196,7.192,0.238,10.052-2.398
	c3.794-3.497,6.941-7.735,12.216-9.397c2.452-0.773,1.494-3.869,3.385-5.647c10.552-9.918,20.668-20.297,31.054-30.394
	c2.575-2.504,3.968-6.243,7.738-7.507c1.679-3.921,4.605-5.07,8.775-4.577c6.044,0.715,12.241,1.892,17.635-2.574
	c1.624-1.345,3.824-0.947,5.806-0.9c8.218,0.193,16.253-0.543,23.728-4.374c1.988-1.019,3.836-1.017,5.332,0.92
	c6.922,0.526,13.115,3.992,19.995,4.888c2.993,0.39,5.967,0.016,8.893,0.556c1.269,0.234,2.668,0.594,3.011,2.167
	c0.35,1.601-1.292,1.632-1.981,2.426c-6.431,7.411-14.388,13.213-20.913,20.627c-8.548,9.713-18.339,18.333-27.617,27.402
	c-9.621,9.405-19.999,18.02-28.961,28.119c-2.632,2.966-5.916,5.347-8.819,8.082C265.523,323.382,263.176,322.009,260.865,321.308z
	 M360.886,240.569c0.984,6.066-1.475,8.89-4.768,11.976c-11.033,10.342-21.552,21.23-32.449,31.72
	c-8.253,7.944-17.204,15.2-25.07,23.496c-7.67,8.089-15.656,15.767-24.238,22.827c-1.713,1.41-4.189,5.124-6.297,2.158
	c-1.769-2.488-2.077-6.784,1.015-9.601c14.342-13.065,28.222-26.609,42.107-40.154c14.869-14.505,29.958-28.785,45.001-43.11
	c1.248-1.189,2.303-3.704,4.15-2.943C362.221,237.716,360.797,240.249,360.886,240.569z"/>
<path style="fill:#E8DDC2;" d="M248.315,74.853c-1.099-0.684-2.345-1.143-3.55-1.64c-14.411-5.945-28.871-11.729-44.558-13.459
	c-17.449-1.925-34.858-2.957-51.441,4.489c-6.528,2.931-13.241,5.618-19.015,9.887l-0.003-0.008
	c-2.823,1.978-5.275,3.266-7.305,5.109c-0.811,0.457-1.298,1.521-2.022,2.079c-1.331,1.027-1.608,2.474-0.65,3.979
	c0.725,1.14,1.899,1.23,3.088,1.198c2.24-0.06,1.324-1.727,1.544-2.897c0.14-0.748,0.723-1.413,1.108-2.115
	c-0.228-0.399-0.457-0.798-0.685-1.197c1.979-0.868,4.164-1.926,5.462-2.494c1.268-0.513,2.524-1.127,3.865-1.304
	c21.906-2.893,42.849,1.462,62.689,9.855c16.895,7.147,31.91,4.627,46.896-4.029c1.439-0.831,2.736-1.872,4.452-2.067
	C251.524,78.52,251.223,76.662,248.315,74.853z"/>
<path style="fill:#544F41;" d="M251.358,235.371c-1.182-0.793-1.587,0.663-1.58,1.134c0.065,4.109-2.915,3.609-5.48,3.776
	c0,0.001-0.001,0.001-0.001,0.002c-1.765-1.704-3.989-0.675-5.987-0.993l-0.003,0.006c0.074,0.721-1.122,0.668-1.985,1.001
	l-0.021-0.015c-1.764,0.316-3.528,0.633-5.291,0.949c-1.92,1.811-3.84,3.621-5.76,5.432c-0.091,3.101-1.708,4.611-4.79,4.592
	c-5.693,7.005-13.537,11.83-19.156,18.909c-0.403,2.415-2.113,3.016-4.232,3.046c-0.607,0.571-1.213,1.141-1.82,1.712
	c-0.107,2.829-1.322,2.443-3.587,1.791c-14.218-4.093-28.504-7.953-42.787-11.822c-13.515-3.661-27.07-7.177-40.543-10.988
	c-0.86-0.243-4.569,0.826-2.811-2.724c7.248-7.79,15.732-14.172,23.868-20.951l1.133-0.751v0l0.063-0.042l0,0l1.592-1.055l0,0
	l1.061-0.703l0.264-0.175l0-0.001c3.956-3.842,3.973-7.343-0.852-10.498c-0.524-0.343-0.955-0.97-1.209-1.56
	c-1.641-3.805-3.733-3.392-6.562-1.1c-7.082,5.737-14.325,11.275-21.491,16.909c-9.483,7.455-18.954,14.925-28.497,22.441
	c1.292,1.543,3.049,1.67,4.578,2.119c21.472,6.301,42.891,12.794,64.467,18.72c18.696,5.136,37.186,11.039,56.134,15.266
	c2.67,0.596,4.727,0.529,6.804-1.505c4.626-4.531,9.555-8.754,14.165-13.3c12.085-11.916,24.078-23.924,36.061-35.943
	c0.967-0.97,2.602-1.618,2.418-3.316C256.804,233.964,254.048,237.176,251.358,235.371z M133.536,227.374
	c0.003-0.003,0.006-0.006,0.009-0.009c0-0.001-0.031,0.101-0.037,0.124L133.536,227.374z"/>
<g id="RUdFfi_00000017502736584750418040000012873790181723974541_">
	<g>
		<g>
			<path style="fill:#FFFFFF;" d="M184.547,245.587c-1.041-0.623-1.802-1.618-2.93-1.625c-1.694-0.01-3.657,0.623-5.477,1.107
				c-0.347,0.092-0.79,0.806-0.756,1.141c0.021,0.216,0.804,0.389,1.297,0.357c0.625-0.04,1.3-0.317,1.957-0.472
				c2.608-0.618,2.828-0.513,2.625,1.215c-0.024,0.202-0.026,0.405-0.093,0.608c-0.757,2.312-0.798,3.012,3.55,3.381
				c4.202,0.357,8.047-0.914,11.304-3.486c0.405-0.32,0.286-0.922,0.41-1.394c-0.693,0.124-1.458,0.141-2.062,0.401
				c-0.755,0.324-1.337,0.89-2.066,1.276c-1.707,0.902-3.494,1.465-5.65,1.334c1.703-1.643,3.233-3.115,4.755-4.589
				c3.801-3.679,8.05-4.999,13.157-4.053c0.957,0.177,1.868,0.194,2.502-0.618c0.693-0.887-0.061-1.249-1.019-1.467
				c-4.292-0.975-8.568-0.465-12.845,2.198c-0.71,0.442-1.498,0.823-2.521,1.38c-0.162-0.726-0.393-1.224-0.373-1.76
				c0.102-2.676,0.269-5.363,0.416-8.046c0.004-0.079,0.044-0.163,0.066-0.245c0.212-0.776,0.074-1.437-1.225-1.374
				c-1.377,0.067-1.785,0.836-1.844,1.557c-0.233,2.813-0.81,5.711-0.443,8.392C187.56,242.833,186.168,244.24,184.547,245.587z
				 M170.297,237.603c-0.418-3.081,1.064-5.717,4.661-8.108c0.963-0.64,1.672-1.317,0.738-1.898
				c-0.874-0.544-1.819-0.005-2.679,0.589c-3.807,2.632-5.985,5.561-5.892,8.793c0.043,1.514-1.404,2.531-2.825,3.851
				c-0.738-1.586-2.585-1.936-4.551-2.161c-0.869-0.099-1.95-0.053-2.188,0.771c-0.105,0.365,0.59,0.907,1.171,1.01
				c3.138,0.557,3.311,0.723,2.19,3.125c-0.134,0.286-0.254,0.573-0.386,0.859c-0.708,1.535-0.169,2.285,1.863,2.587
				c4.831,0.718,10.35-1.429,12.695-5.013c0.27-0.412-0.138-0.93-0.231-1.398c-0.638,0.282-1.32,0.525-1.898,0.86
				c-0.323,0.188-0.435,0.545-0.708,0.799c-1.609,1.496-3.374,2.804-6.441,2.949c2.559-2.437,4.815-4.768,7.359-6.966
				c3.854-3.33,4.675-3.4,8.356-1.261c0.079,0.046,0.134,0.154,0.216,0.147c0.657-0.057,1.497,0.014,1.927-0.248
				c0.412-0.25,0.7-0.971,0.526-1.282c-1.51-2.704-7.276-2.829-10.948-0.267C172.292,236.012,171.42,236.74,170.297,237.603z
				 M154.519,229.805c0.307-0.462,0.37-0.7,0.577-0.845c1.606-1.125,3.295-2.199,4.832-3.361c0.507-0.384,0.644-0.982,0.95-1.482
				c-0.69-0.062-1.362-0.185-2.077-0.158c-0.345,0.013-0.778,0.303-1.158,0.483c-4.173,1.974-6.415,4.535-7.033,7.63
				c-0.164,0.821-0.584,1.661-0.887,2.493c-0.186,0.006-0.372,0.013-0.559,0.019c-0.452-0.564-0.89-1.135-1.359-1.691
				c-0.477-0.564-1.13-1.102-2.329-0.428c-1.155,0.649-0.427,1.179,0.021,1.663c0.141,0.152,0.288,0.3,0.42,0.456
				c1.116,1.325,1.008,2.741-0.861,4.301c-0.379,0.316-0.72,0.655-1.035,0.997c-1.351,1.462-0.646,2.499,1.643,2.44
				c4.637-0.119,10.382-3.505,11.38-6.728c0.108-0.349,0.202-0.941-0.039-1.001c-1.884-0.464-0.784-1.702-0.577-2.639
				c0.303-1.374,1.223-1.766,3.04-1.402c0.887,0.177,1.633,0.57,2.556,0.666c0.526,0.054,1.453-0.187,1.871-0.494
				c0.326-0.239,0.401-0.927,0.149-1.173C162.383,227.925,157.705,227.974,154.519,229.805z M173.35,253.56
				c-1.379,1.657-0.759,3.482,1.349,3.976c2.121,0.496,4.84-0.37,6.198-1.974c1.369-1.616,0.751-3.449-1.342-3.982
				C177.561,251.072,174.646,252.003,173.35,253.56z M158.813,247.324c-2.168-0.533-4.902,0.341-6.257,2
				c-1.316,1.611-0.622,3.379,1.527,3.887c2.094,0.496,4.793-0.38,6.113-1.984C161.592,249.532,161,247.862,158.813,247.324z
				 M143.288,246.989c1.398-1.598,0.846-3.444-1.199-4.01c-1.99-0.551-4.853,0.297-6.209,1.839
				c-1.458,1.657-1.002,3.398,1.056,4.034C138.903,249.459,141.894,248.582,143.288,246.989z"/>
			<path d="M184.547,245.587c1.621-1.347,3.012-2.755,2.735-4.782c-0.367-2.681,0.21-5.579,0.443-8.392
				c0.06-0.721,0.467-1.49,1.844-1.557c1.299-0.063,1.437,0.599,1.225,1.374c-0.022,0.082-0.062,0.166-0.066,0.245
				c-0.147,2.683-0.314,5.37-0.416,8.046c-0.02,0.536,0.211,1.034,0.373,1.76c1.023-0.557,1.811-0.938,2.521-1.38
				c4.277-2.664,8.553-3.173,12.845-2.198c0.958,0.218,1.712,0.579,1.019,1.467c-0.634,0.812-1.545,0.795-2.502,0.618
				c-5.107-0.946-9.355,0.374-13.157,4.053c-1.523,1.474-3.052,2.945-4.755,4.589c2.156,0.131,3.943-0.432,5.65-1.334
				c0.729-0.385,1.311-0.952,2.066-1.276c0.604-0.259,1.369-0.276,2.062-0.401c-0.124,0.471-0.005,1.074-0.41,1.394
				c-3.258,2.571-7.102,3.843-11.304,3.486c-4.348-0.369-4.307-1.07-3.55-3.381c0.067-0.203,0.069-0.406,0.093-0.608
				c0.203-1.729-0.017-1.833-2.625-1.215c-0.657,0.156-1.332,0.433-1.957,0.472c-0.493,0.031-1.275-0.142-1.297-0.357
				c-0.033-0.335,0.409-1.049,0.756-1.141c1.82-0.483,3.783-1.117,5.477-1.107C182.746,243.969,183.506,244.965,184.547,245.587z"/>
			<path d="M170.297,237.603c1.124-0.863,1.995-1.59,2.954-2.259c3.672-2.562,9.438-2.437,10.948,0.267
				c0.174,0.311-0.115,1.031-0.526,1.282c-0.43,0.262-1.27,0.191-1.927,0.248c-0.082,0.007-0.137-0.101-0.216-0.147
				c-3.681-2.138-4.502-2.068-8.356,1.261c-2.544,2.198-4.8,4.529-7.359,6.966c3.067-0.145,4.832-1.454,6.441-2.949
				c0.273-0.254,0.385-0.612,0.708-0.799c0.578-0.336,1.259-0.579,1.898-0.86c0.094,0.469,0.501,0.986,0.231,1.398
				c-2.345,3.584-7.863,5.732-12.695,5.013c-2.032-0.302-2.571-1.052-1.863-2.587c0.132-0.286,0.252-0.573,0.386-0.859
				c1.121-2.402,0.948-2.568-2.19-3.125c-0.581-0.103-1.277-0.644-1.171-1.01c0.238-0.824,1.319-0.871,2.188-0.771
				c1.966,0.224,3.812,0.575,4.551,2.161c1.421-1.321,2.868-2.338,2.825-3.851c-0.093-3.233,2.085-6.161,5.892-8.793
				c0.86-0.595,1.806-1.133,2.679-0.589c0.934,0.581,0.225,1.257-0.738,1.898C171.361,231.886,169.878,234.522,170.297,237.603z"/>
			<path d="M154.519,229.805c3.187-1.831,7.864-1.88,9.525-0.253c0.252,0.247,0.177,0.934-0.149,1.173
				c-0.419,0.307-1.345,0.548-1.871,0.494c-0.922-0.095-1.669-0.488-2.556-0.666c-1.817-0.364-2.738,0.029-3.04,1.402
				c-0.206,0.937-1.307,2.175,0.577,2.639c0.242,0.06,0.147,0.651,0.039,1.001c-0.998,3.223-6.743,6.609-11.38,6.728
				c-2.29,0.059-2.994-0.978-1.643-2.44c0.316-0.342,0.657-0.681,1.035-0.997c1.868-1.56,1.976-2.977,0.861-4.301
				c-0.132-0.156-0.28-0.305-0.42-0.456c-0.448-0.484-1.176-1.013-0.021-1.663c1.199-0.675,1.853-0.136,2.329,0.428
				c0.469,0.555,0.907,1.126,1.359,1.691c0.186-0.006,0.372-0.013,0.559-0.019c0.303-0.831,0.723-1.672,0.887-2.493
				c0.618-3.094,2.86-5.655,7.033-7.63c0.381-0.18,0.813-0.47,1.158-0.483c0.715-0.028,1.387,0.096,2.077,0.158
				c-0.306,0.5-0.442,1.098-0.95,1.482c-1.537,1.163-3.227,2.237-4.832,3.361C154.889,229.105,154.826,229.344,154.519,229.805z"/>
			<path d="M173.35,253.56c1.296-1.557,4.212-2.487,6.206-1.98c2.093,0.533,2.71,2.365,1.342,3.982
				c-1.358,1.604-4.077,2.47-6.198,1.974C172.591,257.042,171.971,255.216,173.35,253.56z"/>
			<path d="M158.813,247.324c2.187,0.538,2.778,2.207,1.383,3.903c-1.32,1.604-4.018,2.48-6.113,1.984
				c-2.148-0.508-2.842-2.276-1.527-3.887C153.911,247.666,156.646,246.791,158.813,247.324z"/>
			<path d="M143.288,246.989c-1.394,1.593-4.385,2.47-6.352,1.862c-2.058-0.636-2.514-2.377-1.056-4.034
				c1.357-1.542,4.219-2.39,6.209-1.839C144.135,243.545,144.687,245.391,143.288,246.989z"/>
		</g>
	</g>
</g>
<path style="fill:#7B7661;" d="M220.487,135.712c-1.033,3.719-3.133,9.067-8.196,6.662c-3.915-1.859-5.531-8.126-5.051-12.026
	c0.504-4.104,3.261-9.94,8.046-6.826C219.286,126.126,220.223,131.328,220.487,135.712z"/>
<path style="fill:#7B7661;" d="M180.332,132.174c-1.367,3.262-2.625,7.498-7.375,5.86c-4.405-1.519-5.716-9.026-5.373-12.983
	c0.353-4.07,1.886-7.436,6.605-5.485c4.213,1.742,5.586,8.425,5.717,12.478C180.048,132.088,180.19,132.131,180.332,132.174z"/>
</svg>
